<svg version="1.1" id="Layer_1" xmlns="http://www.w3.org/2000/svg" x="0" y="0" viewBox="0 0 706.45 757.83" xml:space="preserve"><style>.st0{fill:#fff}.st1{fill:#f27e53}.st2{fill:#e44125}.st3{fill:#22150d}</style><path class="st0" d="M499.98 125.86a1.082 1.082 0 01-1.08-1.08v-24.61h-11.84c-12.86 0-23.32-10.46-23.32-23.32V32.69c0-12.86 10.46-23.32 23.32-23.32h107.18c12.86 0 23.32 10.46 23.32 23.32v44.16c0 12.86-10.46 23.32-23.32 23.32h-71.11L500.8 125.5c-.21.23-.51.36-.82.36zm-363.13 80.21c-.3 0-.6-.13-.81-.37l-22.34-25.33H42.59c-12.86 0-23.32-10.46-23.32-23.32V112.9c0-12.86 10.46-23.32 23.32-23.32h107.18c12.86 0 23.32 10.46 23.32 23.32v44.16c0 12.86-10.46 23.32-23.32 23.32h-11.84v24.61a1.082 1.082 0 01-1.08 1.08z"/><path class="st1" d="M617.81 372.3c.06-.23.12-.45.18-.67 4.96.51 35.26 3.31 36.31 3.13 3.2-.54 4.44-6.92 1.42-10.47-3.02-3.55-23.97-4.44-23.97-4.44l-.02.02c-16.84-1.76-43.17-1.96-43.98-2.4-1.15-.62 9.52-13.85 11.3-17.66 1.78-3.81-1.34-11.58-4.26-12.99-2.92-1.41-29.85 25.13-29.85 25.13l-43.33 61.35 37.47 43.04 25.6-40.29s54.33-1.41 55.69-1.64c3.2-.54 4.44-6.92 1.42-10.47-1.03-1.21-19.23-4.19-22.87-4.85.09-.2.19-.39.28-.59 7.27.82 35.29 3.58 36.72 3.34 3.2-.54 4.44-6.92 1.42-10.47-1.39-1.63-33.4-5.19-38.6-5.86.07-.18.13-.35.2-.53 6.55.72 40.51 3.75 41.81 3.53 3.2-.54 4.44-6.92 1.42-10.47-1.33-1.54-39.45-5.06-44.36-5.74z"/><path class="st2" d="M542.33 384.28l-62.65 53.63c26.28-189.52-137.62-205.26-137.62-205.26l-38.81.56S103.78 212.05 83.92 425.57c-9.09 97.77 20.28 143.98 66.2 150.61l296.56 86.22s-2.19-19.82 11.78-105.77c10.63 8.44 21.09 11.17 30.3 3.93 38.58-30.31 90.26-135.59 90.26-135.59l-36.69-40.69z"/><path class="st3" d="M645.45 583.88c-20.24-34.23-144.89-8.38-144.89-8.38l-34.42 133.95s143.62 10.41 163.33 0c19.71-10.41 36.22-91.33 15.98-125.57z"/><path class="st1" d="M578.01 703.09c-3.73-24.5-163.07-33.56-163.07-33.56l-40.6 71.91h185.82c.01 0 21.58-13.85 17.85-38.35z"/><path class="st1" d="M588.84 664.57c-7.46-8.52-139.34 10.57-139.34 10.57l97.26 13.41 35.42-8.56c.01 0 14.12-6.89 6.66-15.42z"/><path class="st1" d="M583.92 685c-4.39-8.94-39.19-6.08-39.19-6.08l-2.01 16.87 32.04.79c0-.01 13.56-2.65 9.16-11.58z"/><path class="st1" d="M583.92 700.27c-4.39-8.94-39.19-6.08-39.19-6.08l-2.01 16.87 32.04.79c0-.01 13.56-2.65 9.16-11.58z"/><path class="st1" d="M583.92 715.54c-4.39-8.94-39.19-6.08-39.19-6.08l-2.01 16.87 32.04.79c0-.01 13.56-2.65 9.16-11.58z"/><path class="st1" d="M583.92 730.81c-4.39-8.94-39.19-6.08-39.19-6.08l-2.01 16.87 32.04.79c0-.01 13.56-2.65 9.16-11.58z"/><path class="st3" d="M18.08 587.68C4.22 605.64 1.17 626.2 3.8 646.32c7.16 54.63 54.4 95.12 109.5 95.12h311.36l27.02-87.02s-386.07-128.3-433.6-66.74zm233.22-465.3c-.25-12.2.22-24.58 2.77-36.16 2.47-11.21 7.44-20.97 14.09-28.01 3.28-3.47 7.09-6.1 11.12-7.38 4.47-1.42 8.97-.86 13.53-.09.47.08.75.46.86.93 2.52.5 4.25 1.93 5.66 5.12C301.3 61.24 301.4 67 301.59 72c.51 12.83-.4 25.61-1.82 38.16-1.44 12.78-3.32 25.43-5.07 38.12-.86 6.27-1.72 12.54-2.68 18.78-.83 5.42-1.54 11.87-3.66 16.57-1.75 3.86-5.39 3.15-8.26 2.64-3.54-.63-7.04-2.23-10.24-4.6-6.66-4.92-11.68-13.07-14.59-22.83-3.44-11.49-3.72-24.31-3.97-36.46z"/><path class="st1" d="M383.55 85.47s9.57 124.17-30.62 127.71-69.54-9.37-77.9-22.68-.35-73.14 17.7-106.24c0-.01 50.47 15.54 90.82 1.21z"/><ellipse transform="rotate(-64.957 271.675 133.273)" class="st1" cx="271.67" cy="133.28" rx="16.18" ry="16.79"/><path class="st3" d="M266.61 129.31c4.6-.07 8.03 2.99 10.79 6.33.75.91-.56 2.22-1.33 1.3-2.44-2.95-5.37-5.83-9.46-5.77-1.19.01-1.19-1.85 0-1.86z"/><ellipse transform="rotate(-82.34 293.107 153.265)" class="st2" cx="293.11" cy="153.27" rx="3.13" ry="10.36"/><ellipse transform="rotate(-82.34 375.751 166.556)" class="st2" cx="375.76" cy="166.56" rx="3.13" ry="10.36"/><path class="st3" d="M286.8 84.6c5.8 2.61 18.4 32.7 50.49 28.55 0 0 28 17.84 39.72 8.59 0 0 16.38 17.84 29.81 9.94 13.44-7.9-2.62-58.72-46.54-77.33S260.05 38.12 252.65 89.42s34.15-4.82 34.15-4.82z"/><path class="st1" d="M310.45 275.8c-33.64-10.65-43.21-35.7-45.58-40.57l7.53-65.99 71.01 41.42-2.41 48.41c-1.43 9.65-7.34 24.08-30.55 16.73z"/><circle class="st3" cx="315.43" cy="149.61" r="2.46"/><circle class="st3" cx="360.35" cy="154.59" r="2.46"/><ellipse transform="rotate(-13.59 312.747 129.798)" class="st3" cx="312.7" cy="129.76" rx="9.67" ry="3.3"/><ellipse transform="rotate(-53.637 363.177 135.633)" class="st3" cx="363.18" cy="135.64" rx="3.3" ry="9.67"/><path class="st3" d="M306.84 205.44c12.27 3.96 27.39 8.5 36.42 8.28l-.97 19.43-35.45-27.71z"/><path class="st0" d="M321.75 278.91c-.65 0-1.31-.02-1.99-.06-11.77-.68-24.4-6.26-35.56-15.7-9.84-8.32-17.38-18.66-20.18-27.67-.15-.47.12-.97.59-1.12.47-.15.97.12 1.12.59 5.03 16.18 28.63 40.63 54.14 42.11 6.87.4 12.14-1.34 15.65-5.17 6.67-7.25 4.97-19.74 4.95-19.87-.07-.49.27-.94.76-1.01.49-.07.94.27 1.01.76.08.54 1.84 13.44-5.4 21.33-3.54 3.86-8.61 5.81-15.09 5.81zm-42.62-5.08c-.16 0-.32-.04-.47-.13-.61-.38-15.08-9.41-20.17-23.95-.16-.47.08-.98.55-1.14.47-.16.98.08 1.14.55 4.88 13.94 19.27 22.93 19.42 23.02.42.26.55.81.29 1.23-.16.27-.46.42-.76.42z"/><path class="st3" d="M342.58 168.93c-2.11 0-4.88-.73-8.36-2.19a.898.898 0 01-.48-1.17c.19-.45.72-.67 1.17-.48 5.23 2.2 8.84 2.64 10.16 1.24 1.6-1.69.03-6.01-.72-7.53a.887.887 0 01.41-1.19c.44-.22.98-.03 1.19.41.33.67 3.13 6.66.41 9.54-.84.91-2.1 1.37-3.78 1.37z"/><path d="M336.66 113.18c-.12 0-.24-.04-.35-.11-.16-.12-16.22-11.72-24.69-24.98-.18-.28-.1-.65.18-.82.28-.18.65-.1.82.18 8.35 13.06 24.22 24.54 24.38 24.65.27.19.33.56.14.83a.58.58 0 01-.48.25zm40.35 9.15c-.13 0-.27-.05-.38-.14-.13-.11-12.94-10.85-20.77-24.77a.592.592 0 01.23-.81c.29-.16.65-.06.81.23 7.71 13.72 20.36 24.33 20.49 24.44a.6.6 0 01.08.84.64.64 0 01-.46.21z" fill="#604c43"/><path class="st3" d="M337.8 180.04c-1.95 5.27-7.8 7.96-13.07 6.01-5.27-1.95-7.96-7.8-6.01-13.07 1.95-5.27 4.27-.38 9.54 1.58 5.27 1.94 11.5.21 9.54 5.48zm124.56 548.29c-12.26 0-16.26-5.96-16.44-6.24a.881.881 0 01.27-1.23c.41-.27.96-.15 1.23.26.07.1 4.81 6.94 19.92 5.12.49-.06.93.29.99.78a.89.89 0 01-.78.99c-1.87.21-3.6.32-5.19.32zm-8.08-265.23c-.23 0-.46-.09-.64-.27a.887.887 0 01.01-1.26l25.52-25.09c.35-.35.92-.34 1.26.01.35.35.34.92-.01 1.26l-25.52 25.09c-.17.17-.4.26-.62.26zm118.64-85.5a.896.896 0 01-.52-1.62c8.12-5.9 14.5-18.77 14.56-18.9.22-.44.75-.63 1.2-.41.44.22.63.75.41 1.2-.27.54-6.64 13.4-15.11 19.56-.18.12-.36.17-.54.17zm-237.46-11.93l-26.12.81c-.61.11-2.16 3.04-2.58 3.61-.86 1.16-1.76 2.27-2.61 3.44-5.62 7.7-12.71 14.8-21.19 19.46-2.04 1.12-7.62 3.77-3.96 6.36 2.48 1.75 6.23 2.16 9.17 2.51 5.71.69 11.75.32 17.19-1.62 14.83-5.28-12.45 4.09-.28 11.13 12.18 7.04 39.51-4.99 39.51-4.99l-9.13-40.71zm120.76 52.51c-12.41-8.18-19.24-21.09-27.04-33.25-.34-.52-1.49-3.15-2.04-3.31l-17.1 7.51-12.55 32.82s24.26 13.3 36.3 8.9c12.04-4.4-12.44-15.49.85-9.31 4.87 2.27 10.46 3.3 15.85 3.41 2.77.06 6.31.17 8.79-.99 3.66-1.73-1.27-4.6-3.06-5.78z"/><path class="st1" d="M445.48 371.46c-1.34-18.34-18.66-6.3-18.66-6.3l-8.91 21.23c0 .01 28.91 3.41 27.57-14.93z"/><path class="st3" d="M440.9 372.07c-3.14-2.36-7.04-1.98-10.63-1.06-.98.25-.73 1.81.26 1.56 3.16-.81 6.64-1.32 9.44.78.81.61 1.74-.67.93-1.28z"/><path class="st1" d="M432.93 365.66c-.98 34.65-20.87 62.2-55.53 61.22-34.65-.98-61.95-29.87-60.97-64.52s29.87-61.95 64.52-60.97 52.96 29.61 51.98 64.27z"/><path class="st3" d="M406.57 359.39c-.39 0-.75-.26-.86-.65-.59-2.07-1.46-3.34-2.51-3.67-1.37-.43-2.83.75-2.84.76a.9.9 0 01-1.26-.12.896.896 0 01.11-1.25c.09-.07 2.2-1.81 4.5-1.1 1.69.52 2.94 2.17 3.72 4.89.14.47-.14.97-.61 1.1a.69.69 0 01-.25.04zm-38.31-7.9c-.24 0-.48-.1-.66-.29-1.51-1.66-2.93-2.43-4.24-2.33-1.62.14-2.62 1.66-2.63 1.68-.27.41-.82.54-1.23.27a.9.9 0 01-.28-1.23c.06-.09 1.46-2.28 3.97-2.5 1.89-.17 3.82.81 5.74 2.91.33.36.31.93-.06 1.26-.18.15-.4.23-.61.23z"/><path class="st3" d="M439.39 328.29c-2.24-1.67-4.39-3.13-5.92-4.31-18.79-14.49-42.85-26.15-67.16-22.54-18.73 2.78-35.1 13.53-46.04 28.85-3 4.21-5.94 8.86-7.67 13.77l6 3.73s41.39-3.57 70.12-30.22c1.05 6.86 3.31 15.44 8.15 21.06 4.77 5.54 5.5-8.24 5.5-8.24s3.95 18.02 11.87 20c7.92 1.99-.61-21.36-.61-21.36.52 1.41 2.07 2.89 2.98 4.04 2.4 3.03 5.01 5.92 7.89 8.51 3.58 3.21 7.78 6.19 12.49 7.44 4.03 1.07 11.15.69 12.76-4.12 2.13-6.3-4.46-12.2-10.36-16.61zm-55.86 51.95c-.41 0-.78-.28-.87-.7-.11-.48.19-.96.68-1.07 2.35-.53 3.75-1.42 4.15-2.66.59-1.82-1.07-4.24-1.76-5.02a.89.89 0 01.08-1.26.89.89 0 011.26.08c.13.14 3.14 3.59 2.13 6.75-.61 1.88-2.44 3.18-5.46 3.86-.08.01-.14.02-.21.02z"/><circle class="st2" cx="414.08" cy="375.05" r="4.7"/><circle class="st2" cx="346.4" cy="365.1" r="4.7"/><path class="st1" d="M301.54 352.01c5.06-17.68 19.55-2.35 19.55-2.35l4.38 22.61c0-.01-28.99-2.58-23.93-20.26z"/><path class="st3" d="M310.67 354.07c3.87-.68 7.17 1.42 9.96 3.86.76.67-.17 1.95-.94 1.27-2.46-2.15-5.32-4.18-8.77-3.57-1 .18-1.25-1.38-.25-1.56z"/><circle class="st3" cx="400.53" cy="369.18" r="2.65"/><circle class="st3" cx="365.77" cy="364.13" r="2.65"/><path d="M424.94 459.02c-10.3-25.11-42.22-25.75-55.41-24.88l-26.52-9.76s-43.51-16.64-56.56 15.29c-13.04 31.94 6.86 84.56 6.86 84.56l26.18 12.03.82 12.46 125.2 45.87 12.07-42.17c.01.01-19.54-61.47-32.64-93.4z" fill="#faaa49"/><path class="st1" d="M380.43 409.56l-30.31 6.9s-10.27 37.95 14.7 35.08 15.61-41.98 15.61-41.98z"/><path class="st3" d="M377.4 426.88c-2.62-.07-5.21-.31-7.74-.7l11.72 7.97c.45-2.42.67-4.9.74-7.31-1.54.07-3.11.08-4.72.04zm-36.27 119.81a.9.9 0 01-.88-.76l-8-51.81c-.08-.49.26-.94.75-1.02a.9.9 0 011.02.75l8 51.81c.08.49-.26.94-.75 1.02-.05.01-.09.01-.14.01zm80.97 29.56c-.44 0-.83-.33-.88-.78l-9.02-70.35a.891.891 0 111.77-.23l9.02 70.35c.06.49-.28.94-.77 1-.04.01-.08.01-.12.01z"/><path class="st3" d="M425.52 584.62c.21.03.43.06.64.1 8.15 1.53 20.29 5.78 32.3 11.05a867.6 867.6 0 01-3.9-22.36c-8.7-54.23-102.74-22.84-102.74-22.84l74.41 32.78-.71 1.27z"/><path d="M413.52 458.49c-.62-.47-1.49-.35-1.96.27l-4.05 5.32c-.47.62-.35 1.49.27 1.96s1.49.35 1.96-.27l4.05-5.32c.47-.62.35-1.49-.27-1.96zm-8.45 22.24c.22-.74-.2-1.52-.94-1.74l-6.4-1.92a1.399 1.399 0 00-.8 2.68l6.4 1.92c.74.22 1.52-.2 1.74-.94zm-49.43 14.63c.22-.74-.2-1.52-.94-1.74l-6.4-1.92a1.399 1.399 0 00-.8 2.68l6.4 1.92c.74.22 1.52-.2 1.74-.94zm-21.65-61.04c.22-.74-.2-1.52-.94-1.74l-6.4-1.92a1.399 1.399 0 00-.8 2.68l6.4 1.92c.74.22 1.52-.2 1.74-.94zm109.2 105.08c.22-.74-.2-1.52-.94-1.74l-6.4-1.92a1.399 1.399 0 00-.8 2.68l6.4 1.92c.74.22 1.52-.2 1.74-.94zm-61.92-76.85c-.62-.47-1.49-.35-1.96.27l-4.05 5.32c-.47.62-.35 1.49.27 1.96s1.49.35 1.96-.27l4.05-5.32c.46-.62.34-1.49-.27-1.96zm51.25 50.54c-.62-.47-1.49-.35-1.96.27l-4.05 5.32c-.47.62-.35 1.49.27 1.96s1.49.35 1.96-.27l4.05-5.32c.46-.61.35-1.49-.27-1.96zm-73.02-42.42c-.62-.47-1.49-.35-1.96.27l-4.05 5.32c-.47.62-.35 1.49.27 1.96s1.49.35 1.96-.27l4.05-5.32c.47-.61.35-1.49-.27-1.96zm21.39 18.2a1.4 1.4 0 00-.38 1.94l3.73 5.55c.43.64 1.3.81 1.94.38.64-.43.81-1.3.38-1.94l-3.73-5.55a1.4 1.4 0 00-1.94-.38zm39.86-1.18a1.4 1.4 0 00-.38 1.94l3.73 5.55c.43.64 1.3.81 1.94.38.64-.43.81-1.3.38-1.94l-3.73-5.55a1.4 1.4 0 00-1.94-.38zm-97.92-13.12a1.4 1.4 0 00-.38 1.94l3.73 5.55c.43.64 1.3.81 1.94.38.64-.43.81-1.3.38-1.94l-3.73-5.55a1.4 1.4 0 00-1.94-.38zm69.22-31.99a1.4 1.4 0 00-.38 1.94l3.73 5.55c.43.64 1.3.81 1.94.38.64-.43.81-1.3.38-1.94l-3.73-5.55c-.42-.64-1.29-.81-1.94-.38zm-56.55 7.38a1.4 1.4 0 00-.38 1.94l3.73 5.55c.43.64 1.3.81 1.94.38.64-.43.81-1.3.38-1.94l-3.73-5.55a1.39 1.39 0 00-1.94-.38zm52.7 65.81c.17.75.92 1.23 1.67 1.06l6.52-1.47c.75-.17 1.23-.92 1.06-1.67-.17-.75-.92-1.23-1.67-1.06l-6.52 1.47c-.75.17-1.23.92-1.06 1.67zm-29.71-3.13c.17.75.92 1.23 1.67 1.06l6.52-1.47c.75-.17 1.23-.92 1.06-1.67-.17-.75-.92-1.23-1.67-1.06l-6.52 1.47c-.76.17-1.23.92-1.06 1.67zm-60.58-39.41c-.62-.47-1.49-.35-1.96.27l-4.05 5.32c-.47.62-.35 1.49.27 1.96s1.49.35 1.96-.27l4.05-5.32c.47-.62.35-1.5-.27-1.96zm7.74-37.63c-.62-.47-1.49-.35-1.96.27l-4.05 5.32c-.47.62-.35 1.49.27 1.96s1.49.35 1.96-.27l4.05-5.32c.46-.61.34-1.49-.27-1.96zm18.64 84.38c-.62-.47-1.49-.35-1.96.27l-4.05 5.32c-.47.62-.35 1.49.27 1.96s1.49.35 1.96-.27l4.05-5.32c.47-.61.35-1.49-.27-1.96zm24.16 7.19a1.4 1.4 0 00-.38 1.94l3.73 5.55c.43.64 1.3.81 1.94.38.64-.43.81-1.3.38-1.94l-3.73-5.55c-.42-.64-1.29-.82-1.94-.38zm-45.05-26.32a1.4 1.4 0 00-.38 1.94l3.73 5.55c.43.64 1.3.81 1.94.38.64-.43.81-1.3.38-1.94l-3.73-5.55a1.39 1.39 0 00-1.94-.38zm72.24 31.52c.17.75.92 1.23 1.67 1.06l6.52-1.47c.75-.17 1.23-.92 1.06-1.67-.17-.75-.92-1.23-1.67-1.06l-6.52 1.47c-.76.17-1.23.92-1.06 1.67zm-74.07-75.07c.17.75.92 1.23 1.67 1.06l6.52-1.47c.75-.17 1.23-.92 1.06-1.67-.17-.75-.92-1.23-1.67-1.06l-6.52 1.47c-.75.17-1.23.92-1.06 1.67z" fill="#fdc567"/><path fill="#f5c8b6" d="M455.24 492.93l-51.51 173.6 156.33 27.11 52.59-178.91z"/><path class="st3" d="M611.68 516.45c-.04 0-.09 0-.13-.01l-155.96-22.53a.892.892 0 01-.76-1.01c.07-.49.52-.83 1.01-.76l154.84 22.37-6.28-72.09c-.04-.49.32-.92.81-.97.48-.04.92.32.97.81l6.37 73.21c.02.27-.08.54-.28.73-.15.16-.37.25-.59.25z"/><path d="M551.83 589.41c-.11 0-.23-.01-.34-.03-.97-.19-1.6-1.13-1.41-2.09 3.66-18.89-8.73-37.24-27.63-40.9-18.89-3.66-37.24 8.73-40.9 27.63a1.783 1.783 0 01-3.5-.68c1.95-10.09 7.72-18.82 16.24-24.57s18.76-7.84 28.85-5.89c20.83 4.03 34.49 24.26 30.46 45.09-.19.84-.93 1.44-1.77 1.44z" fill="#6c90ca"/><path class="st0" d="M539.02 587.22a2.082 2.082 0 01-2.05-2.48c2.26-11.67-5.4-23.01-17.07-25.27-11.67-2.26-23.01 5.4-25.27 17.07a2.082 2.082 0 11-4.09-.79c2.7-13.93 16.22-23.07 30.15-20.37 13.93 2.7 23.06 16.22 20.37 30.15-.19 1-1.06 1.69-2.04 1.69z"/><path d="M525.86 584.67a2.082 2.082 0 01-2.05-2.48c.41-2.14-.03-4.31-1.25-6.11a8.107 8.107 0 00-5.21-3.44c-4.41-.86-8.7 2.04-9.55 6.45a2.082 2.082 0 11-4.09-.79c1.29-6.67 7.77-11.04 14.44-9.75 3.23.63 6.03 2.47 7.87 5.2 1.84 2.73 2.51 6.01 1.89 9.24-.2.99-1.07 1.68-2.05 1.68z" fill="#a8d4d9"/><path class="st0" d="M596.66 258.78l-.83.3a18.62 18.62 0 00-11.29 11.46l-.19.54a3.06 3.06 0 01-4.32 0l-.49-1.27a18.6 18.6 0 00-11.81-11.03 3.06 3.06 0 010-4.32l.3-.1c5.37-1.77 9.64-5.87 11.61-11.16l.39-1.04a3.06 3.06 0 014.32 0l.19.54c1.83 5.33 5.98 9.55 11.29 11.46l.83.3c1.2 1.19 1.2 3.13 0 4.32zM187.56 21.49l-.83.3a18.62 18.62 0 00-11.29 11.46l-.19.54a3.06 3.06 0 01-4.32 0l-.49-1.27a18.6 18.6 0 00-11.81-11.03 3.06 3.06 0 010-4.32l.3-.1c5.37-1.77 9.64-5.87 11.61-11.16l.39-1.04a3.06 3.06 0 014.32 0l.19.54c1.83 5.33 5.98 9.55 11.29 11.46l.83.3a3.06 3.06 0 010 4.32z"/><path class="st1" d="M410.76 577.58c17.07 3.21 56.16 21.38 57.24 30 .29 2.33-2.68 3.01-7.18 2.76 9.3 3.29 17.68 7.69 21.1 13.42 3.37 5.65-.82 6.99-7.58 6.38 5.31 2.39 9.18 5.26 9.39 8.6.22 3.45-6.54 5.06-15.97 5.65 5.32 2.97 11.06 7.74-2.08 9.74-19.75 3.01-87.66-18.96-87.66-18.96l-30.2-41.14c.01 0 45.87-19.65 62.94-16.45z"/><path class="st3" d="M460.83 611.24c-.1 0-.19-.02-.29-.05l-22.16-7.62a.892.892 0 01-.55-1.14c.16-.47.67-.71 1.14-.55l22.16 7.62c.47.16.71.67.55 1.14-.13.37-.48.6-.85.6zm13.78 19.17c-.08 0-.17-.01-.25-.04l-35.05-10.26a.897.897 0 01-.61-1.11c.14-.47.63-.74 1.11-.61l35.05 10.26c.47.14.75.63.61 1.11-.12.4-.47.65-.86.65zm-8.47 14.01c-.07 0-.15-.01-.22-.03l-26.81-6.84a.885.885 0 01-.64-1.09c.12-.48.61-.77 1.09-.64l26.81 6.84c.48.12.77.61.64 1.09-.11.4-.47.67-.87.67z"/><path class="st2" d="M90.12 517.81s5.88 47.59 77.26 83.28 210.66 34.09 210.66 34.09l32.78-58.68-202.95-89.41 11.19-105.47"/><path class="st3" d="M375.57 636.08c-8.72 0-39.48-.27-76.18-3.68-39.99-3.71-95.42-12.02-132.41-30.52-37.06-18.53-56.21-40.32-65.75-55.34-10.38-16.34-11.94-28.13-12-28.62-.06-.49.29-.93.78-1 .48-.06.94.29 1 .78.01.12 1.59 11.97 11.8 27.99 9.43 14.8 28.35 36.28 64.98 54.6 36.74 18.37 91.93 26.64 131.76 30.34 40.33 3.75 73.47 3.69 77.97 3.66l32.05-57.37-202.05-89.01a.896.896 0 01-.53-.91l11.19-105.47c.05-.49.5-.85.98-.79.49.05.85.49.79.98l-11.12 104.82 202.36 89.14c.23.1.41.3.49.53.08.24.06.5-.07.72l-32.78 58.68c-.16.28-.45.45-.77.46-.07 0-.92.01-2.49.01zm200.6-589.95l-8.94-.63c-2.89-.2-5.75-.44-8.63.09-2.83.52-5.5 1.34-8.4 1.4-3.07.07-5.91-.62-8.89-1.21-2.81-.56-5.48-.49-8.29.03-2.58.48-5.14 1.24-7.79 1.17-2.23-.06-4.66-.69-6.04-2.58-1.13-1.55-1.73-3.54-3.62-4.37-2.4-1.06-5.57.65-7.76 1.6-2.94 1.27-5.7 2.88-8.28 4.77-1.32.97-.04 3.19 1.29 2.21 2.17-1.59 4.47-2.99 6.9-4.15 1.27-.6 2.57-1.13 3.89-1.59 1.12-.39 2.5-1.06 3.49-.1.68.66 1.06 1.64 1.56 2.43.54.86 1.17 1.62 1.97 2.25 1.65 1.29 3.7 1.86 5.77 2.04 5.43.47 10.49-2.33 15.96-1.3 2.76.52 5.43 1.24 8.26 1.35 2.76.1 5.47-.27 8.15-.91 3.19-.76 6.11-.88 9.38-.64 3.34.24 6.68.47 10.02.71 1.64.11 1.64-2.45 0-2.57zm11.12-.39c-.22-.22-.59-.39-.91-.38-.69.03-1.28.56-1.28 1.28v.76c0 .33.14.67.38.91.22.22.59.39.91.38.69-.03 1.28-.56 1.28-1.28v-.76c0-.34-.15-.68-.38-.91zm-13.88 19.45l-16.3.48c-2.77.08-5.54.22-8.32.24-1.2.01-2.2-.07-3.09-.93-.73-.71-1.33-1.38-2.33-1.71-2.07-.69-4.6-.05-6.62.54-2.36.69-4.63 1.67-7.03 2.23-1.79.42-3.7.49-5.48 0-1.95-.54-3.04-1.65-3.89-3.42-1.03-2.13-2.9-2.51-5.09-2-2.8.66-5.5 1.84-7.98 3.27-1.43.82-.14 3.04 1.29 2.21 2.17-1.25 4.45-2.23 6.86-2.88 1.18-.32 2.09-.56 2.7.69.4.83.78 1.58 1.4 2.26 2.36 2.57 6.24 3.08 9.53 2.6 2.22-.33 4.32-1.15 6.43-1.87 1.95-.66 4.91-1.91 6.98-1.23.95.31 1.46 1.32 2.26 1.87.87.6 1.88.83 2.92.91 2.46.19 5.01-.08 7.48-.15 6.09-.18 12.18-.35 18.27-.53 1.65-.06 1.66-2.63.01-2.58zm-443.87 61.15l-8.94-.63c-2.89-.2-5.75-.44-8.63.09-2.83.52-5.5 1.34-8.4 1.4-3.07.07-5.91-.62-8.89-1.21-2.81-.56-5.48-.49-8.29.03-2.58.48-5.14 1.24-7.79 1.17-2.23-.06-4.66-.69-6.04-2.58-1.13-1.55-1.73-3.54-3.62-4.37-2.4-1.06-5.57.65-7.76 1.6-2.94 1.27-5.7 2.88-8.28 4.77-1.32.97-.04 3.19 1.29 2.21 2.17-1.59 4.47-2.99 6.9-4.15 1.27-.6 2.57-1.13 3.89-1.59 1.12-.39 2.5-1.06 3.49-.1.68.66 1.06 1.64 1.56 2.43.54.86 1.17 1.62 1.97 2.25 1.65 1.29 3.7 1.86 5.77 2.04 5.43.47 10.49-2.33 15.96-1.3 2.76.52 5.43 1.24 8.26 1.35 2.76.1 5.47-.27 8.15-.91 3.19-.76 6.11-.88 9.38-.64 3.34.24 6.68.47 10.02.71 1.64.11 1.63-2.45 0-2.57zm11.12-.39c-.22-.22-.59-.39-.91-.38-.69.03-1.28.56-1.28 1.28v.76c0 .33.14.67.38.91.22.22.59.39.91.38.69-.03 1.28-.56 1.28-1.28v-.76c0-.34-.15-.68-.38-.91zm-13.89 19.45l-16.3.48c-2.77.08-5.54.22-8.32.24-1.2.01-2.2-.07-3.09-.93-.73-.71-1.33-1.38-2.33-1.71-2.07-.69-4.6-.05-6.62.54-2.36.69-4.63 1.67-7.03 2.23-1.79.42-3.7.49-5.48 0-1.95-.54-3.04-1.65-3.89-3.42-1.03-2.13-2.9-2.51-5.09-2-2.8.66-5.5 1.84-7.98 3.27-1.43.82-.14 3.04 1.29 2.21 2.17-1.25 4.45-2.23 6.86-2.88 1.18-.32 2.09-.56 2.7.69.4.83.78 1.58 1.4 2.26 2.36 2.57 6.24 3.08 9.53 2.6 2.22-.33 4.32-1.15 6.43-1.87 1.95-.66 4.91-1.91 6.98-1.23.95.31 1.46 1.32 2.26 1.87.87.6 1.88.83 2.92.91 2.46.19 5.01-.08 7.48-.15 6.09-.18 12.18-.35 18.27-.53 1.66-.06 1.67-2.63.01-2.58zm258.31 254.38c-2.14 6.26-7.25 10.18-11.41 8.75s-5.8-7.65-3.66-13.91c2.14-6.26 6.06-7.79 10.22-6.37 4.16 1.43 6.99 5.27 4.85 11.53zm174.98 294.75c-.05 0-.1 0-.15-.01l-156.34-27.11c-.49-.08-.81-.55-.73-1.03s.55-.81 1.03-.73l156.34 27.11c.49.08.81.55.73 1.03-.07.44-.45.74-.88.74z"/><path class="st3" d="M367.78 625.28a.898.898 0 01-.8-1.29l26.92-54.92c.22-.44.75-.63 1.2-.41.44.22.63.75.41 1.2l-26.92 54.92c-.17.32-.48.5-.81.5zm211.24-199.43c-.24 0-.49-.1-.66-.29l-36.68-40.67c-.33-.37-.3-.93.07-1.26.37-.33.93-.3 1.26.07l36.68 40.67c.33.37.3.93-.07 1.26-.18.14-.39.22-.6.22zm-22.87-10.2c-.25 0-.5-.1-.68-.31l-20.73-23.95a.899.899 0 01.09-1.26c.37-.32.94-.28 1.26.09l20.73 23.95c.32.37.28.94-.09 1.26-.17.15-.38.22-.58.22zm136.56 327.52H18.45a1.33 1.33 0 110-2.66h674.26a1.33 1.33 0 110 2.66z"/><path class="st0" d="M516.75 222.43l-1.34-12.94c-.09-.84.51-1.59 1.35-1.69l12.89-1.62c1.45-.18 1.86-2.1.61-2.86l-10.74-6.51c-.66-.4-.93-1.23-.62-1.94l3.68-8.42c.61-1.39-.94-2.74-2.23-1.93l-8.75 5.44c-.78.48-1.81.19-2.21-.64l-4.75-9.79c-.73-1.51-3-.94-2.94.74l.43 10.75c.04.96-.8 1.72-1.75 1.6l-13.24-1.75c-1.62-.21-2.42 1.9-1.07 2.81l13.84 9.39c.74.5.9 1.51.36 2.22l-7.35 9.64c-1.02 1.34.53 3.12 2 2.28l10.45-5.96c.75-.43 1.7-.16 2.12.59l6.38 11.51c.81 1.46 3.06.75 2.88-.92zM42.97 282.22l-12.37 4.02c-.8.26-1.66-.17-1.94-.96l-4.28-12.27c-.48-1.38-2.44-1.38-2.92 0l-4.12 11.87c-.25.73-1.01 1.16-1.77 1.01l-9-1.84c-1.49-.3-2.48 1.5-1.42 2.59l7.15 7.42c.64.66.56 1.73-.16 2.29l-8.58 6.69c-1.32 1.03-.29 3.13 1.34 2.72l10.42-2.67c.93-.24 1.85.42 1.93 1.38l1.06 13.32c.13 1.63 2.36 1.97 2.98.46l6.29-15.5c.33-.82 1.29-1.2 2.09-.82l10.96 5.18c1.52.72 2.94-1.17 1.81-2.43l-8.01-8.98c-.57-.64-.51-1.63.14-2.2l9.92-8.64c1.24-1.11.08-3.16-1.52-2.64z"/></svg>