<svg xmlns="http://www.w3.org/2000/svg" viewBox="0 0 520.32 670.49"><path d="M433.39 445.69l-3.21 1.16a72.053 72.053 0 00-43.7 44.38l-.72 2.09c-4.62 4.62-12.1 4.62-16.72 0l-1.9-4.9a72.045 72.045 0 00-45.72-42.72c-4.62-4.62-4.62-12.1 0-16.72l1.15-.38a72.041 72.041 0 0044.97-43.22l1.51-4.03c4.62-4.62 12.1-4.62 16.72 0l.72 2.09a72.053 72.053 0 0043.7 44.38l3.21 1.16c4.61 4.61 4.61 12.09-.01 16.71zM116.12 599.67l-3.04 1.1a68.272 68.272 0 00-41.42 42.07l-.68 1.98a11.202 11.202 0 01-15.85 0l-1.8-4.65a68.294 68.294 0 00-43.34-40.5 11.202 11.202 0 010-15.85l1.09-.36a68.308 68.308 0 0042.63-40.97l1.43-3.82a11.202 11.202 0 0115.85 0l.68 1.98a68.297 68.297 0 0041.42 42.07l3.04 1.1c4.37 4.38 4.37 11.48-.01 15.85zm341.29-400.4l-5.94-57.14a6.829 6.829 0 015.94-7.48l56.92-7.16c6.42-.81 8.22-9.26 2.69-12.62L469.59 86.1a6.83 6.83 0 01-2.72-8.58l16.24-37.18c2.69-6.15-4.17-12.08-9.87-8.54l-38.62 24.02c-3.44 2.14-7.98.83-9.75-2.82L403.89 9.78c-3.23-6.66-13.27-4.14-12.97 3.26l1.91 47.47c.17 4.23-3.52 7.6-7.72 7.05l-58.48-7.71c-7.14-.94-10.69 8.38-4.73 12.43l61.12 41.46a6.831 6.831 0 011.6 9.8l-32.48 42.55c-4.52 5.92 2.35 13.76 8.81 10.08l46.16-26.31c3.31-1.88 7.51-.7 9.36 2.62l28.17 50.81c3.6 6.5 13.54 3.37 12.77-4.02zm-187.1 114.02l-7.33 2.64a164.54 164.54 0 00-99.79 101.35l-1.64 4.77c-10.54 10.54-27.64 10.54-38.18 0l-4.34-11.2a164.53 164.53 0 00-104.42-97.56c-10.54-10.54-10.54-27.64 0-38.18l2.62-.86a164.534 164.534 0 00102.7-98.7l3.44-9.2c10.54-10.54 27.64-10.54 38.18 0l1.64 4.77a164.54 164.54 0 0099.79 101.35l7.33 2.64c10.54 10.54 10.54 27.64 0 38.18z" fill="#fff"/></svg>