<?xml version="1.0" encoding="utf-8"?>
<!-- Generator: Adobe Illustrator 25.1.0, SVG Export Plug-In . SVG Version: 6.00 Build 0)  -->
<svg version="1.1" id="Layer_1" xmlns="http://www.w3.org/2000/svg" xmlns:xlink="http://www.w3.org/1999/xlink" x="0px" y="0px"
	 viewBox="0 0 706.45 757.83" style="enable-background:new 0 0 706.45 757.83;" xml:space="preserve">
<style type="text/css">
	.st0{fill:#FFFFFF;}
	.st1{fill:#F27E53;}
	.st2{fill:#E44125;}
	.st3{fill:#22150D;}
	.st4{fill:#604C43;}
	.st5{fill:#FAAA49;}
	.st6{fill:#FDC567;}
	.st7{fill:#F5C8B6;}
	.st8{fill:#6C90CA;}
	.st9{fill:#A8D4D9;}
</style>
<g>
	<g>
		<path class="st0" d="M499.98,125.86c-0.13,0-0.26-0.02-0.38-0.07c-0.42-0.16-0.7-0.56-0.7-1.01v-24.61h-11.84
			c-12.86,0-23.32-10.46-23.32-23.32V32.69c0-12.86,10.46-23.32,23.32-23.32h107.18c12.86,0,23.32,10.46,23.32,23.32v44.16
			c0,12.86-10.46,23.32-23.32,23.32h-71.11L500.8,125.5C500.59,125.73,500.29,125.86,499.98,125.86z"/>
	</g>
	<g>
		<path class="st0" d="M136.85,206.07c-0.3,0-0.6-0.13-0.81-0.37l-22.34-25.33H42.59c-12.86,0-23.32-10.46-23.32-23.32V112.9
			c0-12.86,10.46-23.32,23.32-23.32h107.18c12.86,0,23.32,10.46,23.32,23.32v44.16c0,12.86-10.46,23.32-23.32,23.32h-11.84v24.61
			c0,0.45-0.28,0.85-0.7,1.01C137.11,206.05,136.98,206.07,136.85,206.07z"/>
	</g>
	<g>
		<g>
			<path class="st1" d="M617.81,372.3c0.06-0.23,0.12-0.45,0.18-0.67c4.96,0.51,35.26,3.31,36.31,3.13
				c3.2-0.54,4.44-6.92,1.42-10.47c-3.02-3.55-23.97-4.44-23.97-4.44l-0.02,0.02c-16.84-1.76-43.17-1.96-43.98-2.4
				c-1.15-0.62,9.52-13.85,11.3-17.66c1.78-3.81-1.34-11.58-4.26-12.99c-2.92-1.41-29.85,25.13-29.85,25.13l-43.33,61.35
				l37.47,43.04l25.6-40.29c0,0,54.33-1.41,55.69-1.64c3.2-0.54,4.44-6.92,1.42-10.47c-1.03-1.21-19.23-4.19-22.87-4.85
				c0.09-0.2,0.19-0.39,0.28-0.59c7.27,0.82,35.29,3.58,36.72,3.34c3.2-0.54,4.44-6.92,1.42-10.47c-1.39-1.63-33.4-5.19-38.6-5.86
				c0.07-0.18,0.13-0.35,0.2-0.53c6.55,0.72,40.51,3.75,41.81,3.53c3.2-0.54,4.44-6.92,1.42-10.47
				C660.84,376.5,622.72,372.98,617.81,372.3z"/>
		</g>
	</g>
	<g>
		<path class="st2" d="M542.33,384.28l-62.65,53.63c26.28-189.52-137.62-205.26-137.62-205.26l-38.81,0.56
			c0,0-199.47-21.16-219.33,192.36c-9.09,97.77,20.28,143.98,66.2,150.61l0,0l296.56,86.22c0,0-2.19-19.82,11.78-105.77
			c10.63,8.44,21.09,11.17,30.3,3.93c38.58-30.31,90.26-135.59,90.26-135.59L542.33,384.28z"/>
	</g>
	<g>
		<path class="st3" d="M645.45,583.88c-20.24-34.23-144.89-8.38-144.89-8.38l-34.42,133.95c0,0,143.62,10.41,163.33,0
			C649.18,699.04,665.69,618.12,645.45,583.88z"/>
	</g>
	<g>
		<g>
			<path class="st1" d="M578.01,703.09c-3.73-24.5-163.07-33.56-163.07-33.56l-40.6,71.91h185.82
				C560.17,741.44,581.74,727.59,578.01,703.09z"/>
		</g>
		<g>
			<path class="st1" d="M588.84,664.57c-7.46-8.52-139.34,10.57-139.34,10.57l97.26,13.41l35.42-8.56
				C582.19,679.99,596.3,673.1,588.84,664.57z"/>
		</g>
		<g>
			<path class="st1" d="M583.92,685c-4.39-8.94-39.19-6.08-39.19-6.08l-2.01,16.87l32.04,0.79
				C574.76,696.57,588.32,693.93,583.92,685z"/>
		</g>
		<g>
			<path class="st1" d="M583.92,700.27c-4.39-8.94-39.19-6.08-39.19-6.08l-2.01,16.87l32.04,0.79
				C574.76,711.84,588.32,709.2,583.92,700.27z"/>
		</g>
		<g>
			<path class="st1" d="M583.92,715.54c-4.39-8.94-39.19-6.08-39.19-6.08l-2.01,16.87l32.04,0.79
				C574.76,727.11,588.32,724.47,583.92,715.54z"/>
		</g>
		<g>
			<path class="st1" d="M583.92,730.81c-4.39-8.94-39.19-6.08-39.19-6.08l-2.01,16.87l32.04,0.79
				C574.76,742.38,588.32,739.74,583.92,730.81z"/>
		</g>
	</g>
	<g>
		<path class="st3" d="M18.08,587.68C4.22,605.64,1.17,626.2,3.8,646.32c7.16,54.63,54.4,95.12,109.5,95.12h311.36l27.02-87.02
			C451.68,654.42,65.61,526.12,18.08,587.68z"/>
	</g>
	<g>
		<g>
			<path class="st3" d="M251.3,122.38c-0.25-12.2,0.22-24.58,2.77-36.16c2.47-11.21,7.44-20.97,14.09-28.01
				c3.28-3.47,7.09-6.1,11.12-7.38c4.47-1.42,8.97-0.86,13.53-0.09c0.47,0.08,0.75,0.46,0.86,0.93c2.52,0.5,4.25,1.93,5.66,5.12
				c1.97,4.45,2.07,10.21,2.26,15.21c0.51,12.83-0.4,25.61-1.82,38.16c-1.44,12.78-3.32,25.43-5.07,38.12
				c-0.86,6.27-1.72,12.54-2.68,18.78c-0.83,5.42-1.54,11.87-3.66,16.57c-1.75,3.86-5.39,3.15-8.26,2.64
				c-3.54-0.63-7.04-2.23-10.24-4.6c-6.66-4.92-11.68-13.07-14.59-22.83C251.83,147.35,251.55,134.53,251.3,122.38z"/>
		</g>
		<g>
			<path class="st1" d="M383.55,85.47c0,0,9.57,124.17-30.62,127.71s-69.54-9.37-77.9-22.68s-0.35-73.14,17.7-106.24
				C292.73,84.25,343.2,99.8,383.55,85.47z"/>
		</g>
		<g>
			
				<ellipse transform="matrix(0.4233 -0.906 0.906 0.4233 35.93 322.9961)" class="st1" cx="271.67" cy="133.28" rx="16.18" ry="16.79"/>
		</g>
		<g>
			<path class="st3" d="M266.61,129.31c4.6-0.07,8.03,2.99,10.79,6.33c0.75,0.91-0.56,2.22-1.33,1.3c-2.44-2.95-5.37-5.83-9.46-5.77
				C265.42,131.18,265.42,129.32,266.61,129.31z"/>
		</g>
		<g>
			
				<ellipse transform="matrix(0.1333 -0.9911 0.9911 0.1333 102.1348 423.3334)" class="st2" cx="293.11" cy="153.27" rx="3.13" ry="10.36"/>
		</g>
		<g>
			
				<ellipse transform="matrix(0.1333 -0.9911 0.9911 0.1333 160.59 516.7608)" class="st2" cx="375.76" cy="166.56" rx="3.13" ry="10.36"/>
		</g>
		<g>
			<path class="st3" d="M286.8,84.6c5.8,2.61,18.4,32.7,50.49,28.55c0,0,28,17.84,39.72,8.59c0,0,16.38,17.84,29.81,9.94
				c13.44-7.9-2.62-58.72-46.54-77.33S260.05,38.12,252.65,89.42S286.8,84.6,286.8,84.6z"/>
		</g>
		<g>
			<path class="st1" d="M310.45,275.8c-33.64-10.65-43.21-35.7-45.58-40.57l7.53-65.99l71.01,41.42L341,259.07
				C339.57,268.72,333.66,283.15,310.45,275.8z"/>
		</g>
		<g>
			<g>
				<circle class="st3" cx="315.43" cy="149.61" r="2.46"/>
			</g>
			<g>
				<circle class="st3" cx="360.35" cy="154.59" r="2.46"/>
			</g>
			<g>
				
					<ellipse transform="matrix(0.972 -0.2349 0.2349 0.972 -21.7326 77.0986)" class="st3" cx="312.7" cy="129.76" rx="9.67" ry="3.3"/>
			</g>
			<g>
				
					<ellipse transform="matrix(0.5929 -0.8053 0.8053 0.5929 38.6239 347.6829)" class="st3" cx="363.18" cy="135.64" rx="3.3" ry="9.67"/>
			</g>
		</g>
		<g>
			<path class="st3" d="M306.84,205.44c12.27,3.96,27.39,8.5,36.42,8.28l0,0l-0.97,19.43L306.84,205.44z"/>
		</g>
		<g>
			<path class="st0" d="M321.75,278.91c-0.65,0-1.31-0.02-1.99-0.06c-11.77-0.68-24.4-6.26-35.56-15.7
				c-9.84-8.32-17.38-18.66-20.18-27.67c-0.15-0.47,0.12-0.97,0.59-1.12c0.47-0.15,0.97,0.12,1.12,0.59
				c5.03,16.18,28.63,40.63,54.14,42.11c6.87,0.4,12.14-1.34,15.65-5.17c6.67-7.25,4.97-19.74,4.95-19.87
				c-0.07-0.49,0.27-0.94,0.76-1.01c0.49-0.07,0.94,0.27,1.01,0.76c0.08,0.54,1.84,13.44-5.4,21.33
				C333.3,276.96,328.23,278.91,321.75,278.91z"/>
		</g>
		<g>
			<path class="st0" d="M279.13,273.83c-0.16,0-0.32-0.04-0.47-0.13c-0.61-0.38-15.08-9.41-20.17-23.95
				c-0.16-0.47,0.08-0.98,0.55-1.14c0.47-0.16,0.98,0.08,1.14,0.55c4.88,13.94,19.27,22.93,19.42,23.02
				c0.42,0.26,0.55,0.81,0.29,1.23C279.73,273.68,279.43,273.83,279.13,273.83z"/>
		</g>
		<g>
			<path class="st3" d="M342.58,168.93c-2.11,0-4.88-0.73-8.36-2.19c-0.45-0.19-0.67-0.71-0.48-1.17c0.19-0.45,0.72-0.67,1.17-0.48
				c5.23,2.2,8.84,2.64,10.16,1.24c1.6-1.69,0.03-6.01-0.72-7.53c-0.22-0.44-0.03-0.98,0.41-1.19c0.44-0.22,0.98-0.03,1.19,0.41
				c0.33,0.67,3.13,6.66,0.41,9.54C345.52,168.47,344.26,168.93,342.58,168.93z"/>
		</g>
		<g>
			<path class="st4" d="M336.66,113.18c-0.12,0-0.24-0.04-0.35-0.11c-0.16-0.12-16.22-11.72-24.69-24.98
				c-0.18-0.28-0.1-0.65,0.18-0.82c0.28-0.18,0.65-0.1,0.82,0.18c8.35,13.06,24.22,24.54,24.38,24.65c0.27,0.19,0.33,0.56,0.14,0.83
				C337.03,113.09,336.85,113.18,336.66,113.18z"/>
		</g>
		<g>
			<path class="st4" d="M377.01,122.33c-0.13,0-0.27-0.05-0.38-0.14c-0.13-0.11-12.94-10.85-20.77-24.77
				c-0.16-0.29-0.06-0.65,0.23-0.81c0.29-0.16,0.65-0.06,0.81,0.23c7.71,13.72,20.36,24.33,20.49,24.44
				c0.25,0.21,0.29,0.59,0.08,0.84C377.35,122.25,377.18,122.33,377.01,122.33z"/>
		</g>
	</g>
	<g>
		<path class="st3" d="M337.8,180.04c-1.95,5.27-7.8,7.96-13.07,6.01c-5.27-1.95-7.96-7.8-6.01-13.07c1.95-5.27,4.27-0.38,9.54,1.58
			C333.53,176.5,339.76,174.77,337.8,180.04z"/>
	</g>
	<g>
		<path class="st3" d="M462.36,728.33c-12.26,0-16.26-5.96-16.44-6.24c-0.27-0.41-0.15-0.97,0.27-1.23
			c0.41-0.27,0.96-0.15,1.23,0.26c0.07,0.1,4.81,6.94,19.92,5.12c0.49-0.06,0.93,0.29,0.99,0.78c0.06,0.49-0.29,0.93-0.78,0.99
			C465.68,728.22,463.95,728.33,462.36,728.33z"/>
	</g>
	<g>
		<path class="st3" d="M454.28,463.1c-0.23,0-0.46-0.09-0.64-0.27c-0.35-0.35-0.34-0.92,0.01-1.26l25.52-25.09
			c0.35-0.35,0.92-0.34,1.26,0.01c0.35,0.35,0.34,0.92-0.01,1.26l-25.52,25.09C454.73,463.01,454.5,463.1,454.28,463.1z"/>
	</g>
	<g>
		<path class="st3" d="M572.92,377.6c-0.28,0-0.55-0.13-0.72-0.37c-0.29-0.4-0.2-0.96,0.2-1.25c8.12-5.9,14.5-18.77,14.56-18.9
			c0.22-0.44,0.75-0.63,1.2-0.41c0.44,0.22,0.63,0.75,0.41,1.2c-0.27,0.54-6.64,13.4-15.11,19.56
			C573.28,377.55,573.1,377.6,572.92,377.6z"/>
	</g>
	<g>
		<g>
			<g>
				<g>
					<path class="st3" d="M335.46,365.67c0,0-26.12,0.81-26.12,0.81c-0.61,0.11-2.16,3.04-2.58,3.61c-0.86,1.16-1.76,2.27-2.61,3.44
						c-5.62,7.7-12.71,14.8-21.19,19.46c-2.04,1.12-7.62,3.77-3.96,6.36c2.48,1.75,6.23,2.16,9.17,2.51
						c5.71,0.69,11.75,0.32,17.19-1.62c14.83-5.28-12.45,4.09-0.28,11.13c12.18,7.04,39.51-4.99,39.51-4.99L335.46,365.67z"/>
				</g>
				<g>
					<path class="st3" d="M456.22,418.18c-12.41-8.18-19.24-21.09-27.04-33.25c-0.34-0.52-1.49-3.15-2.04-3.31
						c0,0-17.1,7.51-17.1,7.51l-12.55,32.82c0,0,24.26,13.3,36.3,8.9c12.04-4.4-12.44-15.49,0.85-9.31
						c4.87,2.27,10.46,3.3,15.85,3.41c2.77,0.06,6.31,0.17,8.79-0.99C462.94,422.23,458.01,419.36,456.22,418.18z"/>
				</g>
				<g>
					<path class="st1" d="M445.48,371.46c-1.34-18.34-18.66-6.3-18.66-6.3l-8.91,21.23C417.91,386.4,446.82,389.8,445.48,371.46z"/>
				</g>
				<g>
					<path class="st3" d="M440.9,372.07c-3.14-2.36-7.04-1.98-10.63-1.06c-0.98,0.25-0.73,1.81,0.26,1.56
						c3.16-0.81,6.64-1.32,9.44,0.78C440.78,373.96,441.71,372.68,440.9,372.07z"/>
				</g>
				<g>
					<path class="st1" d="M432.93,365.66c-0.98,34.65-20.87,62.2-55.53,61.22c-34.65-0.98-61.95-29.87-60.97-64.52
						s29.87-61.95,64.52-60.97S433.91,331,432.93,365.66z"/>
				</g>
				<g>
					<path class="st3" d="M406.57,359.39c-0.39,0-0.75-0.26-0.86-0.65c-0.59-2.07-1.46-3.34-2.51-3.67
						c-1.37-0.43-2.83,0.75-2.84,0.76c-0.38,0.31-0.94,0.26-1.26-0.12c-0.31-0.38-0.26-0.94,0.11-1.25c0.09-0.07,2.2-1.81,4.5-1.1
						c1.69,0.52,2.94,2.17,3.72,4.89c0.14,0.47-0.14,0.97-0.61,1.1C406.74,359.38,406.66,359.39,406.57,359.39z"/>
				</g>
				<g>
					<path class="st3" d="M368.26,351.49c-0.24,0-0.48-0.1-0.66-0.29c-1.51-1.66-2.93-2.43-4.24-2.33
						c-1.62,0.14-2.62,1.66-2.63,1.68c-0.27,0.41-0.82,0.54-1.23,0.27c-0.41-0.26-0.54-0.81-0.28-1.23c0.06-0.09,1.46-2.28,3.97-2.5
						c1.89-0.17,3.82,0.81,5.74,2.91c0.33,0.36,0.31,0.93-0.06,1.26C368.69,351.41,368.47,351.49,368.26,351.49z"/>
				</g>
				<g>
					<path class="st3" d="M439.39,328.29c-2.24-1.67-4.39-3.13-5.92-4.31c-18.79-14.49-42.85-26.15-67.16-22.54
						c-18.73,2.78-35.1,13.53-46.04,28.85c-3,4.21-5.94,8.86-7.67,13.77l6,3.73c0,0,41.39-3.57,70.12-30.22
						c1.05,6.86,3.31,15.44,8.15,21.06c4.77,5.54,5.5-8.24,5.5-8.24s3.95,18.02,11.87,20c7.92,1.99-0.61-21.36-0.61-21.36
						c0.52,1.41,2.07,2.89,2.98,4.04c2.4,3.03,5.01,5.92,7.89,8.51c3.58,3.21,7.78,6.19,12.49,7.44c4.03,1.07,11.15,0.69,12.76-4.12
						C451.88,338.6,445.29,332.7,439.39,328.29z"/>
				</g>
				<g>
					<path class="st3" d="M383.53,380.24c-0.41,0-0.78-0.28-0.87-0.7c-0.11-0.48,0.19-0.96,0.68-1.07c2.35-0.53,3.75-1.42,4.15-2.66
						c0.59-1.82-1.07-4.24-1.76-5.02c-0.33-0.37-0.29-0.93,0.08-1.26c0.37-0.33,0.93-0.29,1.26,0.08c0.13,0.14,3.14,3.59,2.13,6.75
						c-0.61,1.88-2.44,3.18-5.46,3.86C383.66,380.23,383.6,380.24,383.53,380.24z"/>
				</g>
				<g>
					<circle class="st2" cx="414.08" cy="375.05" r="4.7"/>
				</g>
				<g>
					<circle class="st2" cx="346.4" cy="365.1" r="4.7"/>
				</g>
				<g>
					<path class="st1" d="M301.54,352.01c5.06-17.68,19.55-2.35,19.55-2.35l4.38,22.61C325.47,372.26,296.48,369.69,301.54,352.01z"
						/>
				</g>
				<g>
					<path class="st3" d="M310.67,354.07c3.87-0.68,7.17,1.42,9.96,3.86c0.76,0.67-0.17,1.95-0.94,1.27
						c-2.46-2.15-5.32-4.18-8.77-3.57C309.92,355.81,309.67,354.25,310.67,354.07z"/>
				</g>
				<g>
					<circle class="st3" cx="400.53" cy="369.18" r="2.65"/>
				</g>
				<g>
					<circle class="st3" cx="365.77" cy="364.13" r="2.65"/>
				</g>
			</g>
			<g>
				<path class="st5" d="M424.94,459.02c-10.3-25.11-42.22-25.75-55.41-24.88l-26.52-9.76c0,0-43.51-16.64-56.56,15.29
					c-13.04,31.94,6.86,84.56,6.86,84.56l26.18,12.03l0.82,12.46l125.2,45.87l12.07-42.17
					C457.59,552.43,438.04,490.95,424.94,459.02z"/>
			</g>
			<g>
				<path class="st1" d="M380.43,409.56l-30.31,6.9c0,0-10.27,37.95,14.7,35.08S380.43,409.56,380.43,409.56z"/>
			</g>
			<g>
				<path class="st3" d="M377.4,426.88c-2.62-0.07-5.21-0.31-7.74-0.7l11.72,7.97c0.45-2.42,0.67-4.9,0.74-7.31
					C380.58,426.91,379.01,426.92,377.4,426.88z"/>
			</g>
			<g>
				<path class="st3" d="M341.13,546.69c-0.43,0-0.81-0.32-0.88-0.76l-8-51.81c-0.08-0.49,0.26-0.94,0.75-1.02
					c0.49-0.07,0.94,0.26,1.02,0.75l8,51.81c0.08,0.49-0.26,0.94-0.75,1.02C341.22,546.69,341.18,546.69,341.13,546.69z"/>
			</g>
			<g>
				<path class="st3" d="M422.1,576.25c-0.44,0-0.83-0.33-0.88-0.78l-9.02-70.35c-0.06-0.49,0.28-0.94,0.77-1
					c0.49-0.06,0.94,0.28,1,0.77l9.02,70.35c0.06,0.49-0.28,0.94-0.77,1C422.18,576.25,422.14,576.25,422.1,576.25z"/>
			</g>
		</g>
		<g>
			<path class="st3" d="M425.52,584.62c0.21,0.03,0.43,0.06,0.64,0.1c8.15,1.53,20.29,5.78,32.3,11.05
				c-1.33-7.07-2.64-14.54-3.9-22.36c-8.7-54.23-102.74-22.84-102.74-22.84l74.41,32.78L425.52,584.62z"/>
		</g>
		<g>
			<g>
				<g>
					<path class="st6" d="M413.52,458.49c-0.62-0.47-1.49-0.35-1.96,0.27l-4.05,5.32c-0.47,0.62-0.35,1.49,0.27,1.96
						c0.62,0.47,1.49,0.35,1.96-0.27l4.05-5.32C414.26,459.83,414.14,458.96,413.52,458.49z"/>
				</g>
			</g>
			<g>
				<g>
					<path class="st6" d="M405.07,480.73c0.22-0.74-0.2-1.52-0.94-1.74l-6.4-1.92c-0.74-0.22-1.52,0.2-1.74,0.94
						c-0.22,0.74,0.2,1.52,0.94,1.74l6.4,1.92C404.07,481.89,404.85,481.47,405.07,480.73z"/>
				</g>
			</g>
			<g>
				<g>
					<path class="st6" d="M355.64,495.36c0.22-0.74-0.2-1.52-0.94-1.74l-6.4-1.92c-0.74-0.22-1.52,0.2-1.74,0.94
						c-0.22,0.74,0.2,1.52,0.94,1.74l6.4,1.92C354.64,496.52,355.42,496.1,355.64,495.36z"/>
				</g>
			</g>
			<g>
				<g>
					<path class="st6" d="M333.99,434.32c0.22-0.74-0.2-1.52-0.94-1.74l-6.4-1.92c-0.74-0.22-1.52,0.2-1.74,0.94
						c-0.22,0.74,0.2,1.52,0.94,1.74l6.4,1.92C332.99,435.48,333.77,435.06,333.99,434.32z"/>
				</g>
			</g>
			<g>
				<g>
					<path class="st6" d="M443.19,539.4c0.22-0.74-0.2-1.52-0.94-1.74l-6.4-1.92c-0.74-0.22-1.52,0.2-1.74,0.94
						c-0.22,0.74,0.2,1.52,0.94,1.74l6.4,1.92C442.19,540.56,442.97,540.14,443.19,539.4z"/>
				</g>
			</g>
			<g>
				<g>
					<path class="st6" d="M381.27,462.55c-0.62-0.47-1.49-0.35-1.96,0.27l-4.05,5.32c-0.47,0.62-0.35,1.49,0.27,1.96
						c0.62,0.47,1.49,0.35,1.96-0.27l4.05-5.32C382,463.89,381.88,463.02,381.27,462.55z"/>
				</g>
			</g>
			<g>
				<g>
					<path class="st6" d="M432.52,513.09c-0.62-0.47-1.49-0.35-1.96,0.27l-4.05,5.32c-0.47,0.62-0.35,1.49,0.27,1.96
						c0.62,0.47,1.49,0.35,1.96-0.27l4.05-5.32C433.25,514.44,433.14,513.56,432.52,513.09z"/>
				</g>
			</g>
			<g>
				<g>
					<path class="st6" d="M359.5,470.67c-0.62-0.47-1.49-0.35-1.96,0.27l-4.05,5.32c-0.47,0.62-0.35,1.49,0.27,1.96
						c0.62,0.47,1.49,0.35,1.96-0.27l4.05-5.32C360.24,472.02,360.12,471.14,359.5,470.67z"/>
				</g>
			</g>
			<g>
				<g>
					<path class="st6" d="M380.89,488.87c-0.64,0.43-0.81,1.3-0.38,1.94l3.73,5.55c0.43,0.64,1.3,0.81,1.94,0.38
						c0.64-0.43,0.81-1.3,0.38-1.94l-3.73-5.55C382.4,488.61,381.53,488.44,380.89,488.87z"/>
				</g>
			</g>
			<g>
				<g>
					<path class="st6" d="M420.75,487.69c-0.64,0.43-0.81,1.3-0.38,1.94l3.73,5.55c0.43,0.64,1.3,0.81,1.94,0.38
						c0.64-0.43,0.81-1.3,0.38-1.94l-3.73-5.55C422.26,487.43,421.39,487.26,420.75,487.69z"/>
				</g>
			</g>
			<g>
				<g>
					<path class="st6" d="M322.83,474.57c-0.64,0.43-0.81,1.3-0.38,1.94l3.73,5.55c0.43,0.64,1.3,0.81,1.94,0.38
						c0.64-0.43,0.81-1.3,0.38-1.94l-3.73-5.55C324.34,474.31,323.47,474.14,322.83,474.57z"/>
				</g>
			</g>
			<g>
				<g>
					<path class="st6" d="M392.05,442.58c-0.64,0.43-0.81,1.3-0.38,1.94l3.73,5.55c0.43,0.64,1.3,0.81,1.94,0.38
						c0.64-0.43,0.81-1.3,0.38-1.94l-3.73-5.55C393.57,442.32,392.7,442.15,392.05,442.58z"/>
				</g>
			</g>
			<g>
				<g>
					<path class="st6" d="M335.5,449.96c-0.64,0.43-0.81,1.3-0.38,1.94l3.73,5.55c0.43,0.64,1.3,0.81,1.94,0.38
						c0.64-0.43,0.81-1.3,0.38-1.94l-3.73-5.55C337.01,449.7,336.14,449.52,335.5,449.96z"/>
				</g>
			</g>
			<g>
				<g>
					<path class="st6" d="M388.2,515.77c0.17,0.75,0.92,1.23,1.67,1.06l6.52-1.47c0.75-0.17,1.23-0.92,1.06-1.67
						c-0.17-0.75-0.92-1.23-1.67-1.06l-6.52,1.47C388.51,514.27,388.03,515.02,388.2,515.77z"/>
				</g>
			</g>
			<g>
				<g>
					<path class="st6" d="M358.49,512.64c0.17,0.75,0.92,1.23,1.67,1.06l6.52-1.47c0.75-0.17,1.23-0.92,1.06-1.67
						c-0.17-0.75-0.92-1.23-1.67-1.06l-6.52,1.47C358.79,511.14,358.32,511.89,358.49,512.64z"/>
				</g>
			</g>
			<g>
				<g>
					<path class="st6" d="M297.91,473.23c-0.62-0.47-1.49-0.35-1.96,0.27l-4.05,5.32c-0.47,0.62-0.35,1.49,0.27,1.96
						s1.49,0.35,1.96-0.27l4.05-5.32C298.65,474.57,298.53,473.69,297.91,473.23z"/>
				</g>
			</g>
			<g>
				<g>
					<path class="st6" d="M305.65,435.6c-0.62-0.47-1.49-0.35-1.96,0.27l-4.05,5.32c-0.47,0.62-0.35,1.49,0.27,1.96
						c0.62,0.47,1.49,0.35,1.96-0.27l4.05-5.32C306.38,436.95,306.26,436.07,305.65,435.6z"/>
				</g>
			</g>
			<g>
				<g>
					<path class="st6" d="M324.29,519.98c-0.62-0.47-1.49-0.35-1.96,0.27l-4.05,5.32c-0.47,0.62-0.35,1.49,0.27,1.96
						c0.62,0.47,1.49,0.35,1.96-0.27l4.05-5.32C325.03,521.33,324.91,520.45,324.29,519.98z"/>
				</g>
			</g>
			<g>
				<g>
					<path class="st6" d="M348.45,527.17c-0.64,0.43-0.81,1.3-0.38,1.94l3.73,5.55c0.43,0.64,1.3,0.81,1.94,0.38
						c0.64-0.43,0.81-1.3,0.38-1.94l-3.73-5.55C349.97,526.91,349.1,526.73,348.45,527.17z"/>
				</g>
			</g>
			<g>
				<g>
					<path class="st6" d="M303.4,500.85c-0.64,0.43-0.81,1.3-0.38,1.94l3.73,5.55c0.43,0.64,1.3,0.81,1.94,0.38
						c0.64-0.43,0.81-1.3,0.38-1.94l-3.73-5.55C304.91,500.59,304.04,500.41,303.4,500.85z"/>
				</g>
			</g>
			<g>
				<g>
					<path class="st6" d="M375.64,532.37c0.17,0.75,0.92,1.23,1.67,1.06l6.52-1.47c0.75-0.17,1.23-0.92,1.06-1.67
						c-0.17-0.75-0.92-1.23-1.67-1.06l-6.52,1.47C375.94,530.87,375.47,531.62,375.64,532.37z"/>
				</g>
			</g>
			<g>
				<g>
					<path class="st6" d="M301.57,457.3c0.17,0.75,0.92,1.23,1.67,1.06l6.52-1.47c0.75-0.17,1.23-0.92,1.06-1.67
						c-0.17-0.75-0.92-1.23-1.67-1.06l-6.52,1.47C301.88,455.8,301.4,456.55,301.57,457.3z"/>
				</g>
			</g>
		</g>
	</g>
	<g>
		<g>
			<g>
				<polygon class="st7" points="455.24,492.93 403.73,666.53 560.06,693.64 612.65,514.73 				"/>
			</g>
		</g>
		<g>
			<path class="st3" d="M611.68,516.45c-0.04,0-0.09,0-0.13-0.01l-155.96-22.53c-0.49-0.07-0.83-0.52-0.76-1.01
				c0.07-0.49,0.52-0.83,1.01-0.76l154.84,22.37l-6.28-72.09c-0.04-0.49,0.32-0.92,0.81-0.97c0.48-0.04,0.92,0.32,0.97,0.81
				l6.37,73.21c0.02,0.27-0.08,0.54-0.28,0.73C612.12,516.36,611.9,516.45,611.68,516.45z"/>
		</g>
		<g>
			<g>
				<path class="st8" d="M551.83,589.41c-0.11,0-0.23-0.01-0.34-0.03c-0.97-0.19-1.6-1.13-1.41-2.09
					c3.66-18.89-8.73-37.24-27.63-40.9c-18.89-3.66-37.24,8.73-40.9,27.63c-0.19,0.97-1.13,1.6-2.09,1.41
					c-0.97-0.19-1.6-1.12-1.41-2.09c1.95-10.09,7.72-18.82,16.24-24.57c8.52-5.75,18.76-7.84,28.85-5.89
					c20.83,4.03,34.49,24.26,30.46,45.09C553.41,588.81,552.67,589.41,551.83,589.41z"/>
			</g>
			<g>
				<path class="st0" d="M539.02,587.22c-0.13,0-0.26-0.01-0.4-0.04c-1.13-0.22-1.87-1.31-1.65-2.44
					c2.26-11.67-5.4-23.01-17.07-25.27c-11.67-2.26-23.01,5.4-25.27,17.07c-0.22,1.13-1.31,1.87-2.44,1.65
					c-1.13-0.22-1.87-1.31-1.65-2.44c2.7-13.93,16.22-23.07,30.15-20.37c13.93,2.7,23.06,16.22,20.37,30.15
					C540.87,586.53,540,587.22,539.02,587.22z"/>
			</g>
			<g>
				<path class="st9" d="M525.86,584.67c-0.13,0-0.26-0.01-0.4-0.04c-1.13-0.22-1.87-1.31-1.65-2.44c0.41-2.14-0.03-4.31-1.25-6.11
					c-1.22-1.8-3.07-3.03-5.21-3.44c-4.41-0.86-8.7,2.04-9.55,6.45c-0.22,1.13-1.31,1.86-2.44,1.65c-1.13-0.22-1.87-1.31-1.65-2.44
					c1.29-6.67,7.77-11.04,14.44-9.75c3.23,0.63,6.03,2.47,7.87,5.2c1.84,2.73,2.51,6.01,1.89,9.24
					C527.71,583.98,526.84,584.67,525.86,584.67z"/>
			</g>
		</g>
	</g>
	<g>
		<path class="st0" d="M596.66,258.78l-0.83,0.3c-5.3,1.91-9.46,6.13-11.29,11.46l-0.19,0.54c-1.19,1.19-3.13,1.19-4.32,0
			l-0.49-1.27c-2.05-5.28-6.4-9.35-11.81-11.03l0,0c-1.19-1.19-1.19-3.13,0-4.32l0.3-0.1c5.37-1.77,9.64-5.87,11.61-11.16l0.39-1.04
			c1.19-1.19,3.13-1.19,4.32,0l0.19,0.54c1.83,5.33,5.98,9.55,11.29,11.46l0.83,0.3C597.86,255.65,597.86,257.59,596.66,258.78z"/>
	</g>
	<g>
		<path class="st0" d="M187.56,21.49l-0.83,0.3c-5.3,1.91-9.46,6.13-11.29,11.46l-0.19,0.54c-1.19,1.19-3.13,1.19-4.32,0l-0.49-1.27
			c-2.05-5.28-6.4-9.35-11.81-11.03v0c-1.19-1.19-1.19-3.13,0-4.32l0.3-0.1c5.37-1.77,9.64-5.87,11.61-11.16l0.39-1.04
			c1.19-1.19,3.13-1.19,4.32,0l0.19,0.54c1.83,5.33,5.98,9.55,11.29,11.46l0.83,0.3C188.75,18.37,188.75,20.3,187.56,21.49z"/>
	</g>
	<g>
		<g>
			<path class="st1" d="M410.76,577.58c17.07,3.21,56.16,21.38,57.24,30c0.29,2.33-2.68,3.01-7.18,2.76
				c9.3,3.29,17.68,7.69,21.1,13.42c3.37,5.65-0.82,6.99-7.58,6.38c5.31,2.39,9.18,5.26,9.39,8.6c0.22,3.45-6.54,5.06-15.97,5.65
				c5.32,2.97,11.06,7.74-2.08,9.74c-19.75,3.01-87.66-18.96-87.66-18.96l-30.2-41.14C347.83,594.03,393.69,574.38,410.76,577.58z"
				/>
		</g>
		<g>
			<path class="st3" d="M460.83,611.24c-0.1,0-0.19-0.02-0.29-0.05l-22.16-7.62c-0.47-0.16-0.71-0.67-0.55-1.14
				c0.16-0.47,0.67-0.71,1.14-0.55l22.16,7.62c0.47,0.16,0.71,0.67,0.55,1.14C461.55,611.01,461.2,611.24,460.83,611.24z"/>
		</g>
		<g>
			<path class="st3" d="M474.61,630.41c-0.08,0-0.17-0.01-0.25-0.04l-35.05-10.26c-0.47-0.14-0.75-0.63-0.61-1.11
				c0.14-0.47,0.63-0.74,1.11-0.61l35.05,10.26c0.47,0.14,0.75,0.63,0.61,1.11C475.35,630.16,475,630.41,474.61,630.41z"/>
		</g>
		<g>
			<path class="st3" d="M466.14,644.42c-0.07,0-0.15-0.01-0.22-0.03l-26.81-6.84c-0.48-0.12-0.77-0.61-0.64-1.09
				c0.12-0.48,0.61-0.77,1.09-0.64l26.81,6.84c0.48,0.12,0.77,0.61,0.64,1.09C466.9,644.15,466.54,644.42,466.14,644.42z"/>
		</g>
	</g>
	<g>
		<path class="st2" d="M90.12,517.81c0,0,5.88,47.59,77.26,83.28s210.66,34.09,210.66,34.09l32.78-58.68l-202.95-89.41l11.19-105.47
			"/>
	</g>
	<g>
		<path class="st3" d="M375.57,636.08c-8.72,0-39.48-0.27-76.18-3.68c-39.99-3.71-95.42-12.02-132.41-30.52
			c-37.06-18.53-56.21-40.32-65.75-55.34c-10.38-16.34-11.94-28.13-12-28.62c-0.06-0.49,0.29-0.93,0.78-1
			c0.48-0.06,0.94,0.29,1,0.78c0.01,0.12,1.59,11.97,11.8,27.99c9.43,14.8,28.35,36.28,64.98,54.6
			c36.74,18.37,91.93,26.64,131.76,30.34c40.33,3.75,73.47,3.69,77.97,3.66l32.05-57.37l-202.05-89.01
			c-0.36-0.16-0.57-0.53-0.53-0.91l11.19-105.47c0.05-0.49,0.5-0.85,0.98-0.79c0.49,0.05,0.85,0.49,0.79,0.98l-11.12,104.82
			l202.36,89.14c0.23,0.1,0.41,0.3,0.49,0.53c0.08,0.24,0.06,0.5-0.07,0.72l-32.78,58.68c-0.16,0.28-0.45,0.45-0.77,0.46
			C377.99,636.07,377.14,636.08,375.57,636.08z"/>
	</g>
	<g>
		<g>
			<path class="st3" d="M576.17,46.13c-2.98-0.21-5.96-0.42-8.94-0.63c-2.89-0.2-5.75-0.44-8.63,0.09c-2.83,0.52-5.5,1.34-8.4,1.4
				c-3.07,0.07-5.91-0.62-8.89-1.21c-2.81-0.56-5.48-0.49-8.29,0.03c-2.58,0.48-5.14,1.24-7.79,1.17c-2.23-0.06-4.66-0.69-6.04-2.58
				c-1.13-1.55-1.73-3.54-3.62-4.37c-2.4-1.06-5.57,0.65-7.76,1.6c-2.94,1.27-5.7,2.88-8.28,4.77c-1.32,0.97-0.04,3.19,1.29,2.21
				c2.17-1.59,4.47-2.99,6.9-4.15c1.27-0.6,2.57-1.13,3.89-1.59c1.12-0.39,2.5-1.06,3.49-0.1c0.68,0.66,1.06,1.64,1.56,2.43
				c0.54,0.86,1.17,1.62,1.97,2.25c1.65,1.29,3.7,1.86,5.77,2.04c5.43,0.47,10.49-2.33,15.96-1.3c2.76,0.52,5.43,1.24,8.26,1.35
				c2.76,0.1,5.47-0.27,8.15-0.91c3.19-0.76,6.11-0.88,9.38-0.64c3.34,0.24,6.68,0.47,10.02,0.71
				C577.81,48.81,577.81,46.25,576.17,46.13z"/>
		</g>
		<g>
			<path class="st3" d="M587.29,45.74c-0.22-0.22-0.59-0.39-0.91-0.38c-0.69,0.03-1.28,0.56-1.28,1.28v0.76
				c0,0.33,0.14,0.67,0.38,0.91c0.22,0.22,0.59,0.39,0.91,0.38c0.69-0.03,1.28-0.56,1.28-1.28v-0.76
				C587.67,46.31,587.52,45.97,587.29,45.74z"/>
		</g>
		<g>
			<path class="st3" d="M573.41,65.19c-5.43,0.16-10.87,0.32-16.3,0.48c-2.77,0.08-5.54,0.22-8.32,0.24
				c-1.2,0.01-2.2-0.07-3.09-0.93c-0.73-0.71-1.33-1.38-2.33-1.71c-2.07-0.69-4.6-0.05-6.62,0.54c-2.36,0.69-4.63,1.67-7.03,2.23
				c-1.79,0.42-3.7,0.49-5.48,0c-1.95-0.54-3.04-1.65-3.89-3.42c-1.03-2.13-2.9-2.51-5.09-2c-2.8,0.66-5.5,1.84-7.98,3.27
				c-1.43,0.82-0.14,3.04,1.29,2.21c2.17-1.25,4.45-2.23,6.86-2.88c1.18-0.32,2.09-0.56,2.7,0.69c0.4,0.83,0.78,1.58,1.4,2.26
				c2.36,2.57,6.24,3.08,9.53,2.6c2.22-0.33,4.32-1.15,6.43-1.87c1.95-0.66,4.91-1.91,6.98-1.23c0.95,0.31,1.46,1.32,2.26,1.87
				c0.87,0.6,1.88,0.83,2.92,0.91c2.46,0.19,5.01-0.08,7.48-0.15c6.09-0.18,12.18-0.35,18.27-0.53
				C575.05,67.71,575.06,65.14,573.41,65.19z"/>
		</g>
	</g>
	<g>
		<g>
			<path class="st3" d="M129.54,126.34c-2.98-0.21-5.96-0.42-8.94-0.63c-2.89-0.2-5.75-0.44-8.63,0.09c-2.83,0.52-5.5,1.34-8.4,1.4
				c-3.07,0.07-5.91-0.62-8.89-1.21c-2.81-0.56-5.48-0.49-8.29,0.03c-2.58,0.48-5.14,1.24-7.79,1.17c-2.23-0.06-4.66-0.69-6.04-2.58
				c-1.13-1.55-1.73-3.54-3.62-4.37c-2.4-1.06-5.57,0.65-7.76,1.6c-2.94,1.27-5.7,2.88-8.28,4.77c-1.32,0.97-0.04,3.19,1.29,2.21
				c2.17-1.59,4.47-2.99,6.9-4.15c1.27-0.6,2.57-1.13,3.89-1.59c1.12-0.39,2.5-1.06,3.49-0.1c0.68,0.66,1.06,1.64,1.56,2.43
				c0.54,0.86,1.17,1.62,1.97,2.25c1.65,1.29,3.7,1.86,5.77,2.04c5.43,0.47,10.49-2.33,15.96-1.3c2.76,0.52,5.43,1.24,8.26,1.35
				c2.76,0.1,5.47-0.27,8.15-0.91c3.19-0.76,6.11-0.88,9.38-0.64c3.34,0.24,6.68,0.47,10.02,0.71
				C131.18,129.02,131.17,126.46,129.54,126.34z"/>
		</g>
		<g>
			<path class="st3" d="M140.66,125.95c-0.22-0.22-0.59-0.39-0.91-0.38c-0.69,0.03-1.28,0.56-1.28,1.28v0.76
				c0,0.33,0.14,0.67,0.38,0.91c0.22,0.22,0.59,0.39,0.91,0.38c0.69-0.03,1.28-0.56,1.28-1.28v-0.76
				C141.04,126.52,140.89,126.18,140.66,125.95z"/>
		</g>
		<g>
			<path class="st3" d="M126.77,145.4c-5.43,0.16-10.87,0.32-16.3,0.48c-2.77,0.08-5.54,0.22-8.32,0.24
				c-1.2,0.01-2.2-0.07-3.09-0.93c-0.73-0.71-1.33-1.38-2.33-1.71c-2.07-0.69-4.6-0.05-6.62,0.54c-2.36,0.69-4.63,1.67-7.03,2.23
				c-1.79,0.42-3.7,0.49-5.48,0c-1.95-0.54-3.04-1.65-3.89-3.42c-1.03-2.13-2.9-2.51-5.09-2c-2.8,0.66-5.5,1.84-7.98,3.27
				c-1.43,0.82-0.14,3.04,1.29,2.21c2.17-1.25,4.45-2.23,6.86-2.88c1.18-0.32,2.09-0.56,2.7,0.69c0.4,0.83,0.78,1.58,1.4,2.26
				c2.36,2.57,6.24,3.08,9.53,2.6c2.22-0.33,4.32-1.15,6.43-1.87c1.95-0.66,4.91-1.91,6.98-1.23c0.95,0.31,1.46,1.32,2.26,1.87
				c0.87,0.6,1.88,0.83,2.92,0.91c2.46,0.19,5.01-0.08,7.48-0.15c6.09-0.18,12.18-0.35,18.27-0.53
				C128.42,147.92,128.43,145.35,126.77,145.4z"/>
		</g>
	</g>
	<g>
		<path class="st3" d="M385.08,399.78c-2.14,6.26-7.25,10.18-11.41,8.75s-5.8-7.65-3.66-13.91c2.14-6.26,6.06-7.79,10.22-6.37
			C384.39,389.68,387.22,393.52,385.08,399.78z"/>
	</g>
	<g>
		<path class="st3" d="M560.06,694.53c-0.05,0-0.1,0-0.15-0.01l-156.34-27.11c-0.49-0.08-0.81-0.55-0.73-1.03s0.55-0.81,1.03-0.73
			l156.34,27.11c0.49,0.08,0.81,0.55,0.73,1.03C560.87,694.23,560.49,694.53,560.06,694.53z"/>
	</g>
	<g>
		<path class="st3" d="M367.78,625.28c-0.13,0-0.27-0.03-0.39-0.09c-0.44-0.22-0.63-0.75-0.41-1.2l26.92-54.92
			c0.22-0.44,0.75-0.63,1.2-0.41c0.44,0.22,0.63,0.75,0.41,1.2l-26.92,54.92C368.42,625.1,368.11,625.28,367.78,625.28z"/>
	</g>
	<g>
		<path class="st3" d="M579.02,425.85c-0.24,0-0.49-0.1-0.66-0.29l-36.68-40.67c-0.33-0.37-0.3-0.93,0.07-1.26
			c0.37-0.33,0.93-0.3,1.26,0.07l36.68,40.67c0.33,0.37,0.3,0.93-0.07,1.26C579.44,425.77,579.23,425.85,579.02,425.85z"/>
	</g>
	<g>
		<path class="st3" d="M556.15,415.65c-0.25,0-0.5-0.1-0.68-0.31l-20.73-23.95c-0.32-0.37-0.28-0.94,0.09-1.26
			c0.37-0.32,0.94-0.28,1.26,0.09l20.73,23.95c0.32,0.37,0.28,0.94-0.09,1.26C556.56,415.58,556.35,415.65,556.15,415.65z"/>
	</g>
	<path class="st3" d="M692.71,743.17H18.45c-0.73,0-1.33-0.59-1.33-1.33c0-0.73,0.59-1.33,1.33-1.33h674.26
		c0.73,0,1.33,0.59,1.33,1.33C694.04,742.57,693.44,743.17,692.71,743.17z"/>
	<path class="st0" d="M516.75,222.43l-1.34-12.94c-0.09-0.84,0.51-1.59,1.35-1.69l12.89-1.62c1.45-0.18,1.86-2.1,0.61-2.86
		l-10.74-6.51c-0.66-0.4-0.93-1.23-0.62-1.94l3.68-8.42c0.61-1.39-0.94-2.74-2.23-1.93l-8.75,5.44c-0.78,0.48-1.81,0.19-2.21-0.64
		l-4.75-9.79c-0.73-1.51-3-0.94-2.94,0.74l0.43,10.75c0.04,0.96-0.8,1.72-1.75,1.6l-13.24-1.75c-1.62-0.21-2.42,1.9-1.07,2.81
		l13.84,9.39c0.74,0.5,0.9,1.51,0.36,2.22l-7.35,9.64c-1.02,1.34,0.53,3.12,2,2.28l10.45-5.96c0.75-0.43,1.7-0.16,2.12,0.59
		l6.38,11.51C514.68,224.81,516.93,224.1,516.75,222.43z"/>
	<path class="st0" d="M42.97,282.22l-12.37,4.02c-0.8,0.26-1.66-0.17-1.94-0.96l-4.28-12.27c-0.48-1.38-2.44-1.38-2.92,0
		l-4.12,11.87c-0.25,0.73-1.01,1.16-1.77,1.01l-9-1.84c-1.49-0.3-2.48,1.5-1.42,2.59l7.15,7.42c0.64,0.66,0.56,1.73-0.16,2.29
		l-8.58,6.69c-1.32,1.03-0.29,3.13,1.34,2.72l10.42-2.67c0.93-0.24,1.85,0.42,1.93,1.38l1.06,13.32c0.13,1.63,2.36,1.97,2.98,0.46
		l6.29-15.5c0.33-0.82,1.29-1.2,2.09-0.82l10.96,5.18c1.52,0.72,2.94-1.17,1.81-2.43l-8.01-8.98c-0.57-0.64-0.51-1.63,0.14-2.2
		l9.92-8.64C45.73,283.75,44.57,281.7,42.97,282.22z"/>
</g>
</svg>
