<?xml version="1.0" encoding="utf-8"?>
<!-- Generator: Adobe Illustrator 25.1.0, SVG Export Plug-In . SVG Version: 6.00 Build 0)  -->
<svg version="1.1" id="Layer_1" xmlns="http://www.w3.org/2000/svg" xmlns:xlink="http://www.w3.org/1999/xlink" x="0px" y="0px"
	 viewBox="0 0 154.54 136.43" style="enable-background:new 0 0 154.54 136.43;" xml:space="preserve">
<style type="text/css">
	.st0{fill:#EA4228;}
</style>
<g>
	<g>
		<g>
			<path class="st0" d="M113.22,0.52c-8.32,0-15.95,2.64-22.68,7.84c-6.45,4.99-10.74,11.34-13.27,15.96
				C74.74,19.69,70.45,13.34,64,8.35c-6.73-5.2-14.36-7.84-22.68-7.84c-23.23,0-40.74,19-40.74,44.19
				c0,27.22,21.85,45.84,54.93,74.03c5.62,4.79,11.98,10.21,18.6,16c0.87,0.76,1.99,1.18,3.15,1.18s2.28-0.42,3.15-1.18
				c6.62-5.79,12.99-11.21,18.61-16c33.08-28.19,54.93-46.81,54.93-74.02C153.96,19.51,136.44,0.52,113.22,0.52z"/>
		</g>
	</g>
</g>
</svg>
