<?xml version="1.0" encoding="utf-8"?>
<!-- Generator: Adobe Illustrator 25.1.0, SVG Export Plug-In . SVG Version: 6.00 Build 0)  -->
<svg version="1.1" id="Layer_1" xmlns="http://www.w3.org/2000/svg" xmlns:xlink="http://www.w3.org/1999/xlink" x="0px" y="0px"
	 viewBox="0 0 520.32 670.49" style="enable-background:new 0 0 520.32 670.49;" xml:space="preserve">
<style type="text/css">
	.st0{fill:#FFFFFF;}
</style>
<g>
	<g>
		<path class="st0" d="M433.39,445.69l-3.21,1.16c-20.54,7.41-36.61,23.73-43.7,44.38l-0.72,2.09c-4.62,4.62-12.1,4.62-16.72,0
			l-1.9-4.9c-7.94-20.46-24.77-36.19-45.72-42.72h0c-4.62-4.62-4.62-12.1,0-16.72l1.15-0.38c20.77-6.83,37.31-22.73,44.97-43.22
			l1.51-4.03c4.62-4.62,12.1-4.62,16.72,0l0.72,2.09c7.09,20.65,23.16,36.97,43.7,44.38l3.21,1.16
			C438.01,433.59,438.01,441.07,433.39,445.69z"/>
	</g>
	<g>
		<path class="st0" d="M116.12,599.67l-3.04,1.1c-19.47,7.02-34.7,22.49-41.42,42.07l-0.68,1.98c-4.38,4.38-11.47,4.38-15.85,0
			l-1.8-4.65c-7.53-19.4-23.48-34.31-43.34-40.5l0,0c-4.38-4.38-4.38-11.47,0-15.85l1.09-0.36c19.69-6.48,35.37-21.55,42.63-40.97
			l1.43-3.82c4.38-4.38,11.47-4.38,15.85,0l0.68,1.98c6.72,19.58,21.96,35.05,41.42,42.07l3.04,1.1
			C120.5,588.2,120.5,595.3,116.12,599.67z"/>
	</g>
	<path class="st0" d="M457.41,199.27l-5.94-57.14c-0.38-3.7,2.26-7.02,5.94-7.48l56.92-7.16c6.42-0.81,8.22-9.26,2.69-12.62
		l-47.43-28.77c-2.93-1.77-4.09-5.44-2.72-8.58l16.24-37.18c2.69-6.15-4.17-12.08-9.87-8.54l-38.62,24.02
		c-3.44,2.14-7.98,0.83-9.75-2.82L403.89,9.78c-3.23-6.66-13.27-4.14-12.97,3.26l1.91,47.47c0.17,4.23-3.52,7.6-7.72,7.05
		l-58.48-7.71c-7.14-0.94-10.69,8.38-4.73,12.43l61.12,41.46c3.25,2.2,3.98,6.68,1.6,9.8l-32.48,42.55
		c-4.52,5.92,2.35,13.76,8.81,10.08l46.16-26.31c3.31-1.88,7.51-0.7,9.36,2.62l28.17,50.81
		C448.24,209.79,458.18,206.66,457.41,199.27z"/>
	<g>
		<path class="st0" d="M270.31,313.29l-7.33,2.64c-46.9,16.92-83.6,54.19-99.79,101.35l-1.64,4.77c-10.54,10.54-27.64,10.54-38.18,0
			l-4.34-11.2c-18.13-46.73-56.57-82.64-104.42-97.56l0,0c-10.54-10.54-10.54-27.64,0-38.18l2.62-0.86
			c47.44-15.61,85.22-51.92,102.7-98.7l3.44-9.2c10.54-10.54,27.64-10.54,38.18,0l1.64,4.77c16.19,47.16,52.89,84.43,99.79,101.35
			l7.33,2.64C280.85,285.65,280.85,302.75,270.31,313.29z"/>
	</g>
</g>
</svg>
